<?xml version="1.0" encoding="UTF-8" standalone="no"?>
<!-- Created with Inkscape (http://www.inkscape.org/) -->
<svg
   xmlns:dc="http://purl.org/dc/elements/1.1/"
   xmlns:cc="http://creativecommons.org/ns#"
   xmlns:rdf="http://www.w3.org/1999/02/22-rdf-syntax-ns#"
   xmlns:svg="http://www.w3.org/2000/svg"
   xmlns="http://www.w3.org/2000/svg"
   xmlns:sodipodi="http://sodipodi.sourceforge.net/DTD/sodipodi-0.dtd"
   xmlns:inkscape="http://www.inkscape.org/namespaces/inkscape"
   width="744.09448819"
   height="1052.3622047"
   id="svg2610"
   sodipodi:version="0.32"
   inkscape:version="0.46"
   sodipodi:docname="be-glyph.svg"
   inkscape:output_extension="org.inkscape.output.svg.inkscape">
  <defs
     id="defs2612">
    <inkscape:perspective
       sodipodi:type="inkscape:persp3d"
       inkscape:vp_x="0 : 526.18109 : 1"
       inkscape:vp_y="0 : 1000 : 0"
       inkscape:vp_z="744.09448 : 526.18109 : 1"
       inkscape:persp3d-origin="372.04724 : 350.78739 : 1"
       id="perspective2618" />
  </defs>
  <sodipodi:namedview
     id="base"
     pagecolor="#ffffff"
     bordercolor="#666666"
     borderopacity="1.0"
     gridtolerance="10000"
     guidetolerance="10"
     objecttolerance="10"
     inkscape:pageopacity="0.0"
     inkscape:pageshadow="2"
     inkscape:zoom="0.35"
     inkscape:cx="375"
     inkscape:cy="520"
     inkscape:document-units="px"
     inkscape:current-layer="layer1"
     showgrid="false"
     inkscape:window-width="645"
     inkscape:window-height="726"
     inkscape:window-x="50"
     inkscape:window-y="0" />
  <metadata
     id="metadata2615">
    <rdf:RDF>
      <cc:Work
         rdf:about="">
        <dc:format>image/svg+xml</dc:format>
        <dc:type
           rdf:resource="http://purl.org/dc/dcmitype/StillImage" />
      </cc:Work>
    </rdf:RDF>
  </metadata>
  <g
     inkscape:label="Layer 1"
     inkscape:groupmode="layer"
     id="layer1">
    <path
       d="M 325.646,455.70836 C 325.6859,465.2916 325.73741,474.87525 325.646,484.45836 C 334.97995,484.91471 345.05132,483.95863 353.43366,488.9198 C 359.9068,492.49055 363.2831,500.49423 361.69502,507.6575 C 361.06176,514.79656 354.92009,519.695 347.88721,521.09354 C 340.43019,522.4056 333.05342,522.20932 325.646,522.24554 C 325.69571,525.2634 325.62369,528.70422 325.646,531.24554 C 336.7789,531.43761 351.15489,531.67378 361.17,525.95254 C 368.95098,521.54495 372.31772,512.34424 371.7,503.67542 C 371.6787,497.00586 369.44658,490.37868 364.405,485.75554 C 358.09922,479.30583 349.44283,477.89414 340.77262,477.02941 C 333.88011,476.52284 339.56317,476.8075 334.646,476.44554 C 334.65659,470.87138 334.7144,461.33942 334.646,455.76554 C 331.31275,455.76388 328.97961,455.73634 325.646,455.70836 z"
       id="path2534"
       sodipodi:nodetypes="cccccccccccccc" />
    <path
       d="M 325.646,490.99051 C 317.9124,493.01949 315.71512,494.65528 312.285,498.77728 C 308.89709,504.51498 309.02323,509.4466 308.22838,518.07237 C 309.17235,528.39363 308.15069,533.40878 314.227,540.03254 C 317.18884,542.63785 321.74968,545.1462 327.26444,545.89136 C 335.84747,546.35325 341.26982,546.34099 348.89093,544.84554 C 348.82944,540.97185 348.91701,539.69976 348.93425,536.64554 C 340.88271,538.0415 330.57183,538.88464 324.053,536.36154 C 319.03267,533.22174 318.46967,530.68621 317.487,526.35602 C 316.6703,519.31708 316.55638,513.11805 318.226,506.01029 C 320.24744,502.11193 321.56272,500.76702 326.79501,499.66732 C 332.0154,498.80577 339.90866,499.0069 344.44937,501.94412 C 345.85496,504.2068 345.79522,504.78564 342.70769,506.83951 C 337.0827,507.83778 331.33288,507.41845 325.646,507.35851 C 325.646,510.3022 325.646,513.00159 325.646,515.94528 C 334.31209,516.03636 342.45196,516.77515 350.53101,513.13151 C 355.25914,509.26254 355.32646,506.80438 354.91141,502.13248 C 352.68122,495.67543 350.10726,494.31159 344.89924,492.17708 C 338.71926,490.254 331.82202,490.2899 325.646,490.99051 z"
       id="rect2427"
       sodipodi:nodetypes="ccccccccccccccccccc" />
  </g>
</svg>
