<?xml version="1.0" encoding="UTF-8" standalone="no"?>
<!-- Created with Inkscape (http://www.inkscape.org/) -->
<svg
   xmlns:dc="http://purl.org/dc/elements/1.1/"
   xmlns:cc="http://creativecommons.org/ns#"
   xmlns:rdf="http://www.w3.org/1999/02/22-rdf-syntax-ns#"
   xmlns:svg="http://www.w3.org/2000/svg"
   xmlns="http://www.w3.org/2000/svg"
   xmlns:sodipodi="http://sodipodi.sourceforge.net/DTD/sodipodi-0.dtd"
   xmlns:inkscape="http://www.inkscape.org/namespaces/inkscape"
   width="744.09448819"
   height="1052.3622047"
   id="svg2"
   sodipodi:version="0.32"
   inkscape:version="0.46"
   sodipodi:docname="be-glyph.svg"
   inkscape:output_extension="org.inkscape.output.svg.inkscape"
   inkscape:export-filename="/home/pezra/documents/blog/logo/favicon.png"
   inkscape:export-xdpi="15.165895"
   inkscape:export-ydpi="15.165895">
  <defs
     id="defs4" />
  <sodipodi:namedview
     id="base"
     pagecolor="#ffffff"
     bordercolor="#666666"
     borderopacity="1.0"
     gridtolerance="10000"
     guidetolerance="10"
     objecttolerance="10"
     inkscape:pageopacity="0.0"
     inkscape:pageshadow="2"
     inkscape:zoom="1.7076768"
     inkscape:cx="276.0218"
     inkscape:cy="494.05378"
     inkscape:document-units="px"
     inkscape:current-layer="layer1"
     showgrid="false"
     showguides="true"
     inkscape:guide-bbox="true"
     inkscape:window-width="1280"
     inkscape:window-height="748"
     inkscape:window-x="0"
     inkscape:window-y="0" />
  <metadata
     id="metadata7">
    <rdf:RDF>
      <cc:Work
         rdf:about="">
        <dc:format>image/svg+xml</dc:format>
        <dc:type
           rdf:resource="http://purl.org/dc/dcmitype/StillImage" />
      </cc:Work>
    </rdf:RDF>
  </metadata>
  <g
     inkscape:label="Layer 1"
     inkscape:groupmode="layer"
     id="layer1">
    <flowRoot
       xml:space="preserve"
       id="flowRoot2391"
       style="fill:black;stroke:none;stroke-opacity:1;stroke-width:1px;stroke-linejoin:miter;stroke-linecap:butt;fill-opacity:1;font-family:Bitstream Vera Sans;font-style:normal;font-weight:normal;font-size:40px"><flowRegion
         id="flowRegion2393"><rect
           id="rect2395"
           width="25.714285"
           height="60"
           x="105.71429"
           y="518.07648" /></flowRegion><flowPara
         id="flowPara2397"></flowPara></flowRoot>    <flowRoot
       xml:space="preserve"
       id="flowRoot2407"
       style="font-size:144px;font-style:normal;font-weight:normal;fill:#000000;fill-opacity:1;stroke:none;stroke-width:1px;stroke-linecap:butt;stroke-linejoin:miter;stroke-opacity:1;font-family:Bitstream Vera Sans"><flowRegion
         id="flowRegion2409"><rect
           id="rect2411"
           width="174.28572"
           height="148.57143"
           x="294.28571"
           y="383.79074" /></flowRegion><flowPara
         id="flowPara2413">bb</flowPara></flowRoot>    <path
       d="M 253,489.625 C 253.0399,499.20824 253.09141,508.79189 253,518.375 C 262.33395,518.83135 272.40532,517.87527 280.78766,522.83644 C 287.2608,526.40719 290.6371,534.41087 289.04902,541.57414 C 288.41576,548.7132 282.27409,553.61164 275.24121,555.01018 C 267.78419,556.32224 260.40742,556.12596 253,556.16218 C 253.04971,559.18004 252.97769,562.62086 253,565.16218 C 264.1329,565.35425 278.50889,565.59042 288.524,559.86918 C 296.30498,555.46159 299.67172,546.26088 299.054,537.59206 C 299.0327,530.9225 296.80058,524.29532 291.759,519.67218 C 285.45322,513.22247 276.79683,511.81078 268.12662,510.94605 C 261.23411,510.43948 266.91717,510.72414 262,510.36218 C 262.01059,504.78802 262.0684,495.25606 262,489.68218 C 258.66675,489.68052 256.33361,489.65298 253,489.625 z"
       id="path2534"
       sodipodi:nodetypes="cccccccccccccc" />
    <path
       d="M 253,524.90715 C 245.2664,526.93613 243.06912,528.57192 239.639,532.69392 C 236.25109,538.43162 236.37723,543.36324 235.58238,551.98901 C 236.52635,562.31027 235.50469,567.32542 241.581,573.94918 C 244.54284,576.55449 249.10368,579.06284 254.61844,579.808 C 263.20147,580.26989 268.62382,580.25763 276.24493,578.76218 C 276.18344,574.88849 276.27101,573.6164 276.28825,570.56218 C 268.23671,571.95814 257.92583,572.80128 251.407,570.27818 C 246.38667,567.13838 245.82367,564.60285 244.841,560.27266 C 244.0243,553.23372 243.91038,547.03469 245.58,539.92693 C 247.60144,536.02857 248.91672,534.68366 254.14901,533.58396 C 259.3694,532.72241 267.26266,532.92354 271.80337,535.86076 C 273.20896,538.12344 273.14922,538.70228 270.06169,540.75615 C 264.4367,541.75442 258.68688,541.33509 253,541.27515 C 253,544.21884 253,546.91823 253,549.86192 C 261.66609,549.953 269.80596,550.69179 277.88501,547.04815 C 282.61314,543.17918 282.68046,540.72102 282.26541,536.04912 C 280.03522,529.59207 277.46126,528.22823 272.25324,526.09372 C 266.07326,524.17064 259.17602,524.20654 253,524.90715 z"
       id="rect2427"
       sodipodi:nodetypes="ccccccccccccccccccc" />
  </g>
</svg>
