<?xml version="1.0" encoding="UTF-8" standalone="no"?>
<!-- Created with Inkscape (http://www.inkscape.org/) -->
<svg
   xmlns:dc="http://purl.org/dc/elements/1.1/"
   xmlns:cc="http://creativecommons.org/ns#"
   xmlns:rdf="http://www.w3.org/1999/02/22-rdf-syntax-ns#"
   xmlns:svg="http://www.w3.org/2000/svg"
   xmlns="http://www.w3.org/2000/svg"
   xmlns:sodipodi="http://sodipodi.sourceforge.net/DTD/sodipodi-0.dtd"
   xmlns:inkscape="http://www.inkscape.org/namespaces/inkscape"
   width="744.09448819"
   height="1052.3622047"
   id="svg2"
   sodipodi:version="0.32"
   inkscape:version="0.46"
   sodipodi:docname="be-glyph.svg"
   inkscape:output_extension="org.inkscape.output.svg.inkscape"
   inkscape:export-filename="/home/pezra/documents/blog/logo/favicon.png"
   inkscape:export-xdpi="15.165895"
   inkscape:export-ydpi="15.165895">
  <defs
     id="defs4" />
  <sodipodi:namedview
     id="base"
     pagecolor="#ffffff"
     bordercolor="#666666"
     borderopacity="1.0"
     gridtolerance="10000"
     guidetolerance="10"
     objecttolerance="10"
     inkscape:pageopacity="0.0"
     inkscape:pageshadow="2"
     inkscape:zoom="1.979899"
     inkscape:cx="274.71751"
     inkscape:cy="532.84916"
     inkscape:document-units="px"
     inkscape:current-layer="layer1"
     showgrid="false"
     showguides="true"
     inkscape:guide-bbox="true"
     inkscape:window-width="1280"
     inkscape:window-height="748"
     inkscape:window-x="0"
     inkscape:window-y="0" />
  <metadata
     id="metadata7">
    <rdf:RDF>
      <cc:Work
         rdf:about="">
        <dc:format>image/svg+xml</dc:format>
        <dc:type
           rdf:resource="http://purl.org/dc/dcmitype/StillImage" />
      </cc:Work>
    </rdf:RDF>
  </metadata>
  <g
     inkscape:label="Layer 1"
     inkscape:groupmode="layer"
     id="layer1">
    <flowRoot
       xml:space="preserve"
       id="flowRoot2391"
       style="fill:black;stroke:none;stroke-opacity:1;stroke-width:1px;stroke-linejoin:miter;stroke-linecap:butt;fill-opacity:1;font-family:Bitstream Vera Sans;font-style:normal;font-weight:normal;font-size:40px"><flowRegion
         id="flowRegion2393"><rect
           id="rect2395"
           width="25.714285"
           height="60"
           x="105.71429"
           y="518.07648" /></flowRegion><flowPara
         id="flowPara2397"></flowPara></flowRoot>    <flowRoot
       xml:space="preserve"
       id="flowRoot2407"
       style="font-size:144px;font-style:normal;font-weight:normal;fill:#000000;fill-opacity:1;stroke:none;stroke-width:1px;stroke-linecap:butt;stroke-linejoin:miter;stroke-opacity:1;font-family:Bitstream Vera Sans"><flowRegion
         id="flowRegion2409"><rect
           id="rect2411"
           width="174.28572"
           height="148.57143"
           x="294.28571"
           y="383.79074" /></flowRegion><flowPara
         id="flowPara2413">bb</flowPara></flowRoot>    <path
       d="M 253,489.625 C 252.99948,495.41411 253.1278,501.23829 253,506.90012 C 253,509.47508 253.17858,515.97861 253,518.375 C 263.53265,518.91986 271.47822,517.77711 280.99764,522.83612 C 286.25725,526.61049 288.84691,530.72184 289.38136,536.1249 C 288.98269,542.22852 289.29225,545.99175 284.11474,551.40232 C 276.38763,557.11142 267.83016,556.41625 258.52946,556.91537 C 253.69751,557.26919 252.79667,555.79872 253,558.77018 C 253,561.07104 253,562.99332 253,565.29418 C 265.24822,565.47863 275.16951,565.80062 284.628,561.93218 C 295.12671,557.17345 297.46454,550.68403 299.1279,542.61269 C 299.21967,530.48251 298.28663,525.02718 290.75782,518.26044 C 282.34195,510.79313 274.31174,510.49953 263.5,509.39733 C 263.44047,504.41369 263.55952,494.7872 263.5,489.80356 C 259.87351,489.74404 256.62649,489.68452 253,489.625 z"
       id="path2534"
       sodipodi:nodetypes="ccccccccccccccc" />
    <path
       d="M 253,525.40741 C 245.2664,527.43639 243.70812,528.24718 240.278,532.36918 C 234.21824,541.4384 235.61866,547.08379 235.87518,557.17399 C 236.81915,567.49525 236.68291,570.8462 243.784,576.44518 C 246.74584,578.4649 250.06782,578.80262 253.67941,579.69418 C 257.85274,580.23447 270.54126,581.07091 282.24493,577.69918 C 282.59752,573.20437 282.47805,574.74088 282.28825,568.99518 C 269.57961,573.40332 255.55151,572.01613 251.20658,570.32118 C 244.7758,566.33123 245.43806,564.31766 244.841,560.77292 C 244.0243,553.73398 244.19638,548.30591 245.866,541.19815 C 247.88744,537.29979 249.64871,535.62311 254.881,534.52341 C 260.10139,533.66186 267.26266,533.4238 271.80337,536.36102 C 273.20896,538.6237 273.14922,539.20254 270.06169,541.25641 C 264.4367,542.25468 258.68688,541.83535 253,541.77541 C 253,544.7191 253,547.18372 253,550.12741 C 261.66609,550.21849 269.80596,551.19205 277.88501,547.54841 C 283.34513,543.53304 282.68046,541.22128 282.26541,536.54938 C 280.03522,530.09233 277.46126,528.72849 272.25324,526.59398 C 266.07326,524.6709 259.17602,524.7068 253,525.40741 z"
       id="rect2427"
       sodipodi:nodetypes="ccccccccccccccccccc" />
  </g>
</svg>
